<mxfile>
    <diagram id="YX3qDd9_rEckakoB8OsL" name="Page-1">
        <mxGraphModel dx="888" dy="1021" grid="1" gridSize="16" guides="1" tooltips="1" connect="1" arrows="1" fold="1" page="1" pageScale="1" pageWidth="2500" pageHeight="4000" math="0" shadow="0">
            <root>
                <mxCell id="0"/>
                <mxCell id="1" parent="0"/>
                <mxCell id="6" value="" style="strokeWidth=1;shadow=0;dashed=0;align=center;html=1;shape=mxgraph.mockup.containers.browserWindow;rSize=0;strokeColor=#666666;strokeColor2=#008cff;strokeColor3=#c4c4c4;mainText=,;recursiveResize=0;" parent="1" vertex="1">
                    <mxGeometry x="64" y="320" width="320" height="768" as="geometry"/>
                </mxCell>
                <mxCell id="7" value="10+1" style="strokeWidth=1;shadow=0;dashed=0;align=center;html=1;shape=mxgraph.mockup.containers.anchor;fontSize=17;fontColor=#666666;align=left;" parent="6" vertex="1">
                    <mxGeometry x="60" y="12" width="110" height="26" as="geometry"/>
                </mxCell>
                <mxCell id="8" value="https://www.draw.io" style="strokeWidth=1;shadow=0;dashed=0;align=center;html=1;shape=mxgraph.mockup.containers.anchor;rSize=0;fontSize=17;fontColor=#666666;align=left;" parent="6" vertex="1">
                    <mxGeometry x="130" y="60" width="250" height="26" as="geometry"/>
                </mxCell>
                <mxCell id="24" value="" style="rounded=0;whiteSpace=wrap;html=1;fillColor=#CCCCCC;" parent="6" vertex="1">
                    <mxGeometry y="110" width="320" height="658" as="geometry"/>
                </mxCell>
                <mxCell id="26" value="" style="rounded=0;whiteSpace=wrap;html=1;" parent="6" vertex="1">
                    <mxGeometry x="30" y="176" width="256" height="336" as="geometry"/>
                </mxCell>
                <mxCell id="27" value="Log In" style="text;strokeColor=none;fillColor=none;html=1;fontSize=24;fontStyle=1;verticalAlign=middle;align=center;" parent="6" vertex="1">
                    <mxGeometry x="30" y="192" width="100" height="40" as="geometry"/>
                </mxCell>
                <mxCell id="28" value="Enter" style="strokeWidth=1;shadow=0;dashed=0;align=center;html=1;shape=mxgraph.mockup.buttons.button;strokeColor=#666666;fontColor=#ffffff;mainText=;buttonStyle=round;fontSize=17;fontStyle=1;fillColor=#008cff;whiteSpace=wrap;" parent="6" vertex="1">
                    <mxGeometry x="48" y="432" width="224" height="50" as="geometry"/>
                </mxCell>
                <mxCell id="10" value="&lt;h1&gt;Wireframes for the Homepage&lt;/h1&gt;" style="text;html=1;strokeColor=none;fillColor=none;spacing=5;spacingTop=-20;whiteSpace=wrap;overflow=hidden;rounded=0;" parent="1" vertex="1">
                    <mxGeometry x="80" y="80" width="190" height="120" as="geometry"/>
                </mxCell>
                <mxCell id="11" value="Mobile" style="text;strokeColor=none;fillColor=none;html=1;fontSize=24;fontStyle=1;verticalAlign=middle;align=center;" parent="1" vertex="1">
                    <mxGeometry x="64" y="224" width="100" height="40" as="geometry"/>
                </mxCell>
                <mxCell id="43" value="Example input placeholder" style="html=1;shadow=0;dashed=0;shape=mxgraph.bootstrap.rrect;rSize=5;fillColor=none;strokeColor=#999999;align=left;spacing=15;fontSize=14;fontColor=#6C767D;" parent="1" vertex="1">
                    <mxGeometry width="224" height="30" relative="1" as="geometry">
                        <mxPoint x="112" y="616" as="offset"/>
                    </mxGeometry>
                </mxCell>
                <mxCell id="45" value="Another input placeholder" style="html=1;shadow=0;dashed=0;shape=mxgraph.bootstrap.rrect;rSize=5;fillColor=none;strokeColor=#999999;align=left;spacing=15;fontSize=14;fontColor=#6C767D;" parent="1" vertex="1">
                    <mxGeometry width="224" height="30" relative="1" as="geometry">
                        <mxPoint x="112" y="696" as="offset"/>
                    </mxGeometry>
                </mxCell>
                <mxCell id="58" value="" style="strokeWidth=1;shadow=0;dashed=0;align=center;html=1;shape=mxgraph.mockup.containers.browserWindow;rSize=0;strokeColor=#666666;strokeColor2=#008cff;strokeColor3=#c4c4c4;mainText=,;recursiveResize=0;" parent="1" vertex="1">
                    <mxGeometry x="512" y="320" width="768" height="1024" as="geometry"/>
                </mxCell>
                <mxCell id="59" value="10+1" style="strokeWidth=1;shadow=0;dashed=0;align=center;html=1;shape=mxgraph.mockup.containers.anchor;fontSize=17;fontColor=#666666;align=left;" parent="58" vertex="1">
                    <mxGeometry x="60" y="12" width="110" height="26" as="geometry"/>
                </mxCell>
                <mxCell id="60" value="https://www.draw.io" style="strokeWidth=1;shadow=0;dashed=0;align=center;html=1;shape=mxgraph.mockup.containers.anchor;rSize=0;fontSize=17;fontColor=#666666;align=left;" parent="58" vertex="1">
                    <mxGeometry x="130" y="60" width="250" height="26" as="geometry"/>
                </mxCell>
                <mxCell id="61" value="" style="rounded=0;whiteSpace=wrap;html=1;fillColor=#CCCCCC;" parent="58" vertex="1">
                    <mxGeometry y="110" width="768" height="914" as="geometry"/>
                </mxCell>
                <mxCell id="62" value="" style="rounded=0;whiteSpace=wrap;html=1;" parent="58" vertex="1">
                    <mxGeometry x="240" y="176" width="288" height="368" as="geometry"/>
                </mxCell>
                <mxCell id="63" value="Log In" style="text;strokeColor=none;fillColor=none;html=1;fontSize=24;fontStyle=1;verticalAlign=middle;align=center;" parent="58" vertex="1">
                    <mxGeometry x="240" y="192" width="100" height="40" as="geometry"/>
                </mxCell>
                <mxCell id="64" value="Enter" style="strokeWidth=1;shadow=0;dashed=0;align=center;html=1;shape=mxgraph.mockup.buttons.button;strokeColor=#666666;fontColor=#ffffff;mainText=;buttonStyle=round;fontSize=17;fontStyle=1;fillColor=#008cff;whiteSpace=wrap;" parent="58" vertex="1">
                    <mxGeometry x="272" y="448" width="224" height="50" as="geometry"/>
                </mxCell>
                <mxCell id="69" value="Another input placeholder" style="html=1;shadow=0;dashed=0;shape=mxgraph.bootstrap.rrect;rSize=5;fillColor=none;strokeColor=#999999;align=left;spacing=15;fontSize=14;fontColor=#6C767D;" parent="58" vertex="1">
                    <mxGeometry x="271.99999999999955" y="385" width="224" height="30" as="geometry"/>
                </mxCell>
                <mxCell id="68" value="Password" style="fillColor=none;strokeColor=none;align=left;fontSize=14;fontColor=#212529;" parent="58" vertex="1">
                    <mxGeometry x="271.99999999999955" y="345" width="260" height="40" as="geometry"/>
                </mxCell>
                <mxCell id="67" value="Example input placeholder" style="html=1;shadow=0;dashed=0;shape=mxgraph.bootstrap.rrect;rSize=5;fillColor=none;strokeColor=#999999;align=left;spacing=15;fontSize=14;fontColor=#6C767D;" parent="58" vertex="1">
                    <mxGeometry x="271.99999999999955" y="315" width="224" height="30" as="geometry"/>
                </mxCell>
                <mxCell id="66" value="Username" style="fillColor=none;strokeColor=none;align=left;fontSize=14;fontColor=#212529;" parent="58" vertex="1">
                    <mxGeometry x="274" y="272" width="222" height="40" as="geometry"/>
                </mxCell>
                <mxCell id="65" value="Tablet" style="text;strokeColor=none;fillColor=none;html=1;fontSize=24;fontStyle=1;verticalAlign=middle;align=center;" parent="1" vertex="1">
                    <mxGeometry x="512" y="224" width="100" height="40" as="geometry"/>
                </mxCell>
                <mxCell id="81" value="Desktop" style="text;strokeColor=none;fillColor=none;html=1;fontSize=24;fontStyle=1;verticalAlign=middle;align=center;" parent="1" vertex="1">
                    <mxGeometry x="1344" y="224" width="100" height="40" as="geometry"/>
                </mxCell>
                <mxCell id="82" value="Same as tablet" style="text;html=1;align=center;verticalAlign=middle;resizable=0;points=[];autosize=1;" parent="1" vertex="1">
                    <mxGeometry x="1348" y="320" width="96" height="16" as="geometry"/>
                </mxCell>
            </root>
        </mxGraphModel>
    </diagram>
</mxfile>